<svg width="69" height="93" viewBox="0 0 69 93" fill="none" xmlns="http://www.w3.org/2000/svg">
<path d="M0 8.2133C0 3.67722 3.67722 0 8.2133 0H19.1644C23.7004 0 27.3777 3.67722 27.3777 8.2133V84.1863C27.3777 88.7224 23.7004 92.3996 19.1644 92.3996H8.2133C3.67722 92.3996 0 88.7224 0 84.1863V8.2133Z" fill="#F54A34"/>
<path d="M34.2221 75.2886C34.2221 65.8384 41.883 58.1776 51.3331 58.1776C60.7833 58.1776 68.4442 65.8384 68.4442 75.2886V89.3577C68.4442 91.0377 67.0822 92.3996 65.4022 92.3996H51.3331C41.883 92.3996 34.2221 84.7388 34.2221 75.2886Z" fill="#F54A34"/>
<path d="M47.9109 27.3777C55.4711 27.3777 61.5998 33.5064 61.5998 41.0665C61.5998 48.6266 55.4711 54.7553 47.9109 54.7553H36.6557C35.3116 54.7553 34.2221 53.6658 34.2221 52.3218V41.0665C34.2221 33.5064 40.3508 27.3777 47.9109 27.3777Z" fill="#F54A34"/>
</svg>
