<svg width="172" height="151" viewBox="0 0 172 151" fill="none" xmlns="http://www.w3.org/2000/svg">
<g clip-path="url(#clip0_154_220)">
<path d="M174.798 189.22V189.22C151.215 192.36 129.417 176.157 125.628 152.67V152.67C121.839 129.182 100.041 112.979 76.458 116.119V116.119C52.8749 119.259 31.0773 103.056 27.288 79.5682V79.5682C23.4988 56.0806 1.70124 39.8773 -21.8819 43.0175V43.0175C-45.465 46.1577 -67.2626 29.9544 -71.0518 6.46685V6.46685C-74.8411 -17.0207 -96.6387 -33.224 -120.222 -30.0838V-30.0838" stroke="#F3792E"/>
<path d="M195.58 161.775V161.775C172.456 167.373 149.078 153.547 142.845 130.587V130.587C136.611 107.627 113.233 93.8014 90.1096 99.3998V99.3998C66.9864 104.998 43.6084 91.1724 37.3746 68.2124V68.2124C31.1407 45.2523 7.76277 31.4266 -15.3605 37.025V37.025C-38.4837 42.6234 -61.8617 28.7977 -68.0955 5.83761V5.83761C-74.3293 -17.1225 -97.7073 -30.9481 -120.831 -25.3498V-25.3498" stroke="#F3533E"/>
<path d="M155.797 197.425V197.425C132.131 199.857 110.829 183.007 107.746 159.417V159.417C104.663 135.826 83.3607 118.976 59.694 121.408V121.408C36.0273 123.839 14.7255 106.989 11.6424 83.3988V83.3988C8.55921 59.8082 -12.7426 42.9585 -36.4093 45.39V45.39C-60.076 47.8215 -81.3778 30.9718 -84.4609 7.38111V7.38111C-87.5441 -16.2096 -108.846 -33.0593 -132.513 -30.6278V-30.6278" stroke="#FFC568"/>
<path d="M129.009 226.532V226.532C105.253 225.232 86.849 205.258 87.4934 181.476V181.476C88.1378 157.693 69.7335 137.719 45.9778 136.419V136.419C22.2221 135.119 3.81777 115.145 4.4622 91.3627V91.3627C5.10663 67.5801 -13.2977 47.6061 -37.0534 46.3062V46.3062C-60.8091 45.0062 -79.2134 25.0322 -78.569 1.24964V1.24964C-77.9246 -22.5329 -96.3289 -42.5069 -120.085 -43.8069V-43.8069" stroke="white"/>
<path d="M99.0657 232.419V232.419C75.9172 229.993 59.1185 209.26 61.5448 186.112V186.112C63.9712 162.963 47.1725 142.231 24.024 139.804V139.804C0.875414 137.378 -15.9233 116.645 -13.4969 93.4969V93.4969C-11.0706 70.3484 -27.8693 49.6159 -51.0178 47.1895V47.1895C-74.1663 44.7632 -90.965 24.0307 -88.5387 0.882149V0.882149C-86.1124 -22.2664 -102.911 -42.9989 -126.06 -45.4252V-45.4252" stroke="white" stroke-opacity="0.8"/>
</g>
<defs>
<clipPath id="clip0_154_220">
<rect width="172" height="151" fill="white"/>
</clipPath>
</defs>
</svg>
