<svg width="32" height="32" viewBox="0 0 32 32" fill="none" xmlns="http://www.w3.org/2000/svg">
<rect width="32" height="32" rx="8" fill="#282722"/>
<path d="M7.11111 6.13333C7.11111 4.95513 8.06624 4 9.24445 4H12.0889C13.2671 4 14.2222 4.95513 14.2222 6.13333V25.8667C14.2222 27.0449 13.2671 28 12.0889 28H9.24445C8.06624 28 7.11111 27.0449 7.11111 25.8667V6.13333Z" fill="#F3533E"/>
<path d="M16 23.5556C16 21.101 17.9898 19.1111 20.4444 19.1111C22.899 19.1111 24.8889 21.101 24.8889 23.5556V27.2099C24.8889 27.6463 24.5351 28 24.0988 28H20.4444C17.9898 28 16 26.0102 16 23.5556Z" fill="#F3792E"/>
<path d="M19.5556 11.1111C21.5192 11.1111 23.1111 12.703 23.1111 14.6667C23.1111 16.6303 21.5192 18.2222 19.5556 18.2222H16.6321C16.283 18.2222 16 17.9392 16 17.5901V14.6667C16 12.703 17.5919 11.1111 19.5556 11.1111Z" fill="#FFC05B"/>
</svg>
