<svg width="181" height="195" viewBox="0 0 181 195" fill="none" xmlns="http://www.w3.org/2000/svg">
<g clip-path="url(#clip0_154_226)">
<path d="M254.996 196.005V196.005C231.206 195.677 212.001 176.472 211.673 152.683V152.683C211.345 128.894 192.14 109.689 168.351 109.361V109.361C144.562 109.033 125.357 89.8277 125.029 66.0386V66.0386C124.701 42.2496 105.496 23.0444 81.7065 22.7164V22.7164C57.9175 22.3884 38.7123 3.18315 38.3843 -20.6059V-20.6059C38.0563 -44.3949 18.8511 -63.6001 -4.93796 -63.9281V-63.9281" stroke="#F3792E"/>
<path d="M264.996 181.005V181.005C241.206 180.677 222.001 161.472 221.673 137.683V137.683C221.345 113.894 202.14 94.6889 178.351 94.3609V94.3609C154.562 94.0329 135.357 74.8277 135.029 51.0386V51.0386C134.701 27.2496 115.496 8.04442 91.7065 7.71639V7.71639C67.9175 7.38835 48.7123 -11.8169 48.3843 -35.6059V-35.6059C48.0563 -59.3949 28.8511 -78.6001 5.06204 -78.9281V-78.9281" stroke="#F3533E"/>
<path d="M243 216.502V216.502C219.211 216.174 200.006 196.969 199.678 173.18V173.18C199.35 149.391 180.145 130.186 156.356 129.858V129.858C132.567 129.53 113.362 110.325 113.034 86.5355V86.5355C112.706 62.7465 93.5004 43.5413 69.7114 43.2133V43.2133C45.9224 42.8852 26.7172 23.68 26.3892 -0.108986V-0.108986C26.0611 -23.898 6.85594 -43.1032 -16.9331 -43.4312V-43.4312" stroke="#FFC568"/>
<path d="M231.005 225.999V225.999C207.216 225.671 188.011 206.466 187.683 182.677V182.677C187.355 158.888 168.15 139.683 144.361 139.355V139.355C120.572 139.027 101.367 119.821 101.039 96.0324V96.0324C100.711 72.2434 81.5054 53.0382 57.7164 52.7102V52.7102C33.9274 52.3821 14.7222 33.1769 14.3942 9.3879V9.3879C14.0661 -14.4011 -5.13906 -33.6063 -28.9281 -33.9344V-33.9344" stroke="white"/>
<path d="M223.934 238.928V238.928C200.659 238.928 181.791 220.06 181.791 196.784V196.784C181.791 173.509 162.922 154.641 139.647 154.641V154.641C116.372 154.641 97.5031 135.772 97.5031 112.497V112.497C97.5031 89.2215 78.6347 70.3531 55.3594 70.3531V70.3531C32.084 70.3531 13.2157 51.4847 13.2157 28.2094V28.2094C13.2157 4.93404 -5.65272 -13.9344 -28.9281 -13.9344V-13.9344" stroke="white" stroke-opacity="0.8"/>
</g>
<defs>
<clipPath id="clip0_154_226">
<rect width="181" height="195" fill="white"/>
</clipPath>
</defs>
</svg>
